<svg xmlns="http://www.w3.org/2000/svg" viewBox="0 0 1356.68 1356.68"><defs><style>.cls-1{fill:#3c2415;}.cls-2{fill:none;}</style></defs><g id="Capa_2" data-name="Capa 2"><g id="Capa_1-2" data-name="Capa 1"><path class="cls-1" d="M663.1,499.33,718.54,511c31.61,6.65,65.87,10.5,96.4,21,12.21,4.18,23.92,10.52,32.76,19.93,16.61,17.67,11.11,52.56,10.64,75-.53,25-1.21,51.67-13.23,74.29-12.23,23-26.26,43.61-46.62,60.36-38.84,33.2-92.71,48.6-160,45.71-85.38-4.34-158-38.46-215.78-101.29-57.38-63.89-87.58-152-89.78-261.8-1.49-79.43,10.93-148.8,36.89-206.19,25.63-56.71,61.93-99.66,107.72-127.57C556.7,63.58,646.41,60,743.73,99.69c63,28.25,110,67.75,139.82,118,2.87,4.32,12,19.08,27,43.85L933.89,300l4.7-189.46L912.45,91.67c-17-12.17-42.07-24-76.52-36.34A509.12,509.12,0,0,0,732.52,30.22c-84.5-10-164.33.38-237.3,31.05C422,92.08,361.51,142,315.62,209.71c-46.75,68.58-70.46,150.2-70.46,242.61,0,163.15,59,283.1,175.49,356.55,60.16,37.51,132.84,56.53,216,56.53,58.47,0,108.36-13.76,148.63-41.15A367.17,367.17,0,0,0,835,780.46c4.72-5.15,7.88-8.44,10-10.51a64.69,64.69,0,0,1,12.72,5.11v370.22c0,56.66-6.86,96.93-20.38,119.72-12.33,20.76-32.67,30.86-62.17,30.86-18,0-32.26-4.54-43.52-13.88-10.24-8.48-14.46-18.74-13.31-32.06,1.85-17.63-.87-33.16-8.09-46.17-8.3-14.94-21.55-22.84-38.31-22.84-13.21,0-24.65,5-33.09,14.58-8.1,9.19-12.2,20.31-12.18,33.78,1.82,34.71,19.25,61,52.34,78.46a233.68,233.68,0,0,0,100.85,22.42c74.71,0,163.76-34.92,163.76-201.29V598.53c0-21.33-5-40.59,13-56.26a71.15,71.15,0,0,1,31.69-15.58l38.47-8.54,77.8-17.27,7-1.55Z"/><rect class="cls-2" width="1356.68" height="1356.68"/></g></g></svg>